<svg width="138" height="71" viewBox="0 0 138 71" fill="none" xmlns="http://www.w3.org/2000/svg">
<path d="M10.98 53.504C16.452 53.504 20.34 50.624 20.34 45.764C20.34 40.436 16.056 39.104 12.24 37.952C8.316 36.764 7.704 35.972 7.704 34.82C7.704 33.812 8.604 32.912 10.404 32.912C12.708 32.912 13.896 34.028 14.76 35.828L19.62 32.984C17.784 29.276 14.544 27.296 10.404 27.296C6.048 27.296 1.944 30.104 1.944 34.964C1.944 39.788 5.616 41.588 9.36 42.632C13.14 43.676 14.58 44.288 14.58 45.836C14.58 46.808 13.896 47.888 11.16 47.888C8.316 47.888 6.768 46.484 5.868 44.396L0.9 47.276C2.304 50.984 5.688 53.504 10.98 53.504ZM23.0386 53H28.4386V26.72H23.0386V53ZM41.0302 53.504C46.3222 53.504 50.5702 49.364 50.5702 44C50.5702 38.636 46.3222 34.496 41.0302 34.496C35.7382 34.496 31.4902 38.636 31.4902 44C31.4902 49.364 35.7382 53.504 41.0302 53.504ZM41.0302 48.248C38.6902 48.248 36.8902 46.556 36.8902 44C36.8902 41.444 38.6902 39.752 41.0302 39.752C43.3702 39.752 45.1702 41.444 45.1702 44C45.1702 46.556 43.3702 48.248 41.0302 48.248ZM64.1725 34.496C61.7965 34.496 59.9965 35.36 59.0245 36.692V35H53.6245V53H59.0245V43.172C59.0245 40.616 60.3925 39.464 62.3725 39.464C64.1005 39.464 65.5045 40.508 65.5045 42.74V53H70.9045V41.948C70.9045 37.088 67.8085 34.496 64.1725 34.496ZM86.2408 35V44.828C86.2408 47.384 84.8728 48.536 82.8928 48.536C81.1648 48.536 79.7608 47.492 79.7608 45.26V35H74.3608V46.052C74.3608 50.912 77.4568 53.504 81.0928 53.504C83.4688 53.504 85.2688 52.64 86.2408 51.308V53H91.6408V35H86.2408ZM115.761 34.496C113.205 34.496 111.549 35.432 110.541 36.872C109.533 35.36 107.949 34.496 105.825 34.496C103.413 34.496 101.829 35.432 101.001 36.656V35H95.6011V53H101.001V42.848C101.001 40.724 102.009 39.464 103.809 39.464C105.537 39.464 106.401 40.616 106.401 42.416V53H111.801V42.848C111.801 40.724 112.809 39.464 114.609 39.464C116.337 39.464 117.201 40.616 117.201 42.416V53H122.601V41.948C122.601 37.448 119.901 34.496 115.761 34.496Z" fill="black"/>
<path d="M136.671 19.4737C136.829 22.2101 135.58 24.8405 133.345 26.4471L134.7 29.0775C135.105 29.872 135.158 30.8076 134.806 31.6374C134.471 32.4671 133.785 33.1203 132.941 33.4028L131.55 33.8442C130.972 34.0398 130.347 34.0515 129.761 33.8778C129.175 33.704 128.657 33.3532 128.278 32.8732L124.547 28.4596C122.981 28.1948 121.503 27.524 120.254 26.5177C119.374 26.7825 118.494 26.9237 117.615 26.9237C116.066 26.9237 114.518 26.4471 113.216 25.5291C112.283 25.8115 111.333 25.9351 110.365 25.9174C108.975 25.9351 107.603 25.6526 106.318 25.123C105.082 24.5695 104.025 23.6785 103.269 22.5517C102.513 21.4248 102.088 20.1075 102.042 18.7499C101.902 17.4788 102.113 16.19 102.658 15.0249C102.148 13.7008 102.095 12.2532 102.535 10.9114C103.186 9.2343 104.418 7.83963 105.949 6.95692C106.969 3.97337 109.837 1.97846 112.987 2.19031C115.802 -0.457812 120.113 -0.740278 123.245 1.5371C123.984 1.34291 124.759 1.23698 125.533 1.23698C127.926 1.18402 130.196 2.24327 131.691 4.13226C135.281 5.06793 137.85 8.28098 137.991 12.0237C138.079 13.9833 137.551 15.9076 136.477 17.5494C136.6 18.1849 136.671 18.8205 136.671 19.4737ZM127.873 16.9845C128.876 17.108 129.668 17.8672 129.668 18.8735C129.668 19.3417 129.482 19.7907 129.152 20.1218C128.822 20.4529 128.375 20.6389 127.908 20.6389H126.8C126.237 22.2277 125.251 23.6224 123.949 24.6817C124.389 24.8405 124.847 24.9288 125.304 25.0524C134.331 24.9288 133.275 19.4031 133.275 19.3148C133.228 18.1021 132.703 16.9577 131.816 16.1334C130.928 15.309 129.75 14.8721 128.542 14.9189C128.075 14.9189 127.627 14.7329 127.297 14.4019C126.967 14.0708 126.782 13.6217 126.782 13.1535C126.782 12.6853 126.967 12.2363 127.297 11.9052C127.627 11.5741 128.075 11.3881 128.542 11.3881C130.706 11.4411 132.782 12.2532 134.401 13.6831C134.489 13.1712 134.542 12.6415 134.542 12.1119C134.436 9.92281 133.451 8.01617 129.492 7.64543C127.292 2.41981 121.75 5.31509 121.75 6.93927C121.697 7.34531 122.119 8.21036 122.19 8.26332C122.656 8.26332 123.104 8.44932 123.434 8.7804C123.764 9.11148 123.949 9.56052 123.949 10.0287C123.949 10.9997 123.157 11.7942 122.19 11.7942C121.257 11.7588 120.377 11.4058 119.673 10.8055C118.829 11.3528 117.861 11.6882 116.858 11.7942C115.855 11.8824 115.028 11.1763 114.975 10.2053C114.943 9.97467 114.958 9.73984 115.019 9.51522C115.08 9.2906 115.187 9.08092 115.332 8.89906C115.477 8.7172 115.657 8.567 115.862 8.45767C116.067 8.34835 116.292 8.28221 116.524 8.26332C116.805 8.22802 118.178 8.01617 118.178 6.90396C118.178 5.73879 118.618 4.62658 119.374 3.74387C117.755 3.30252 116.013 3.8851 114.254 6.02125C111.016 5.50928 109.697 5.95063 108.729 9.39319C107.057 10.2229 106.177 10.8055 105.79 12.5709C107.691 12.1825 109.644 12.3414 111.456 13.0123C112.336 13.3477 112.829 14.3363 112.494 15.2897C112.16 16.2077 111.139 16.6667 110.224 16.3313C108.94 15.7663 107.497 15.731 106.177 16.2253C105.614 16.702 105.614 17.6906 105.614 18.4674C105.614 19.7738 106.265 20.9919 107.374 21.6981C108.306 22.1748 109.345 22.4219 110.383 22.4043C110.119 21.9453 109.89 21.4686 109.697 20.9743C109.558 20.5207 109.6 20.0309 109.814 19.6079C110.028 19.1849 110.397 18.8617 110.844 18.7062C111.291 18.5507 111.78 18.5751 112.209 18.7742C112.639 18.9733 112.974 19.3316 113.145 19.7738C113.849 21.7864 115.644 23.1634 117.755 23.3929C120.166 23.2693 122.313 21.8393 123.368 19.6326C123.773 17.1963 125.726 16.9845 127.873 16.9845ZM131.392 30.1721L130.301 27.8771L129.052 28.1595L130.811 30.3663L131.392 30.1721ZM123.21 14.9719C123.225 14.5209 123.068 14.0811 122.77 13.743C122.472 13.4048 122.057 13.1939 121.609 13.1535C120.36 13.0829 119.145 13.5066 118.213 14.3363C117.21 15.3603 116.682 16.7726 116.735 18.2026C116.735 18.6708 116.92 19.1199 117.25 19.4509C117.58 19.782 118.028 19.968 118.494 19.968C119.497 19.968 120.254 19.1736 120.254 18.2026C120.254 17.7259 120.377 17.2493 120.659 16.8609C120.87 16.6843 121.134 16.5961 121.415 16.5961C122.383 16.649 123.21 15.9252 123.21 14.9719Z" fill="black"/>
</svg>
